<svg width="124" height="124" viewBox="0 0 124 124" fill="none" xmlns="http://www.w3.org/2000/svg">
<path d="M62 124C96.2416 124 124 96.2416 124 62C124 27.7583 96.2416 0 62 0C27.7583 0 0 27.7583 0 62C0 96.2416 27.7583 124 62 124Z" fill="#32CD32"/>
<path d="M100.459 44.5816V89.9879C100.459 93.9339 97.2857 97.4688 93.3397 97.4688H30.6503C26.7043 97.4688 23.4954 93.9339 23.4954 89.9879V44.5816C23.4954 40.6356 26.7043 37.8027 30.6503 37.8027H37.5344V41.9167C37.5344 44.737 39.733 47.0409 42.5484 47.0409C45.3637 47.0409 47.5623 44.737 47.5623 41.9167V37.8027H76.3925V41.9167C76.3925 44.737 78.5886 47.0409 81.409 47.0409C84.2243 47.0409 86.4204 44.737 86.4204 41.9167V37.8027H93.3397C97.2857 37.8027 100.459 40.6356 100.459 44.5816Z" fill="white"/>
<path d="M94.488 58.4126H29.5022V90.7526H94.488V58.4126Z" fill="#32CD32"/>
<path d="M42.8794 45.424H42.0496C40.1192 45.424 38.5398 43.8446 38.5398 41.9142V33.6938C38.5398 31.7635 40.1192 30.1841 42.0496 30.1841H42.8794C44.8097 30.1841 46.3891 31.7635 46.3891 33.6938V41.9117C46.3891 43.8421 44.8097 45.424 42.8794 45.424Z" fill="white"/>
<path d="M81.8152 45.424H80.9854C79.055 45.424 77.4756 43.8446 77.4756 41.9142V33.6938C77.4756 31.7635 79.055 30.1841 80.9854 30.1841H81.8152C83.7455 30.1841 85.3249 31.7635 85.3249 33.6938V41.9117C85.3274 43.8421 83.7455 45.424 81.8152 45.424Z" fill="white"/>
<path d="M44.0977 86.0318V82.7902L47.0559 80.1128C52.0598 75.6378 54.4891 73.0657 54.5593 70.3882C54.5593 68.5205 53.4311 67.0414 50.7888 67.0414C48.8158 67.0414 47.0885 68.0267 45.8927 68.9442L44.3784 65.1035C46.1057 63.7999 48.7832 62.7419 51.8818 62.7419C57.0612 62.7419 59.9142 65.7729 59.9142 69.9294C59.9142 73.7701 57.1314 76.8337 53.8197 79.7944L51.7063 81.5568V81.627H60.3378V86.0318H44.0977Z" fill="white"/>
<path d="M78.9422 67.5353H70.065L69.5711 71.0576C70.065 70.9874 70.4862 70.9874 71.0502 70.9874C73.2338 70.9874 75.455 71.4813 77.0745 72.6445C78.8018 73.8077 79.8572 75.7105 79.8572 78.388C79.8572 82.6498 76.192 86.4203 70.0274 86.4203C67.2447 86.4203 64.9182 85.7861 63.6497 85.1167L64.5998 81.1005C65.6226 81.5944 67.7009 82.2287 69.7792 82.2287C71.9979 82.2287 74.3594 81.1707 74.3594 78.7415C74.3594 76.3799 72.4918 74.9359 67.9115 74.9359C66.643 74.9359 65.763 75.0061 64.8104 75.1465L66.3246 63.1331H78.9372V67.5353H78.9422Z" fill="white"/>
</svg>
