<svg width="124" height="124" viewBox="0 0 124 124" fill="none" xmlns="http://www.w3.org/2000/svg">
<path d="M62 124C96.2416 124 124 96.2416 124 62C124 27.7583 96.2416 0 62 0C27.7583 0 0 27.7583 0 62C0 96.2416 27.7583 124 62 124Z" fill="#32CD32"/>
<path d="M92.4824 47.7377V57.9261H83.8659C80.3336 57.9261 77.4406 60.8066 77.4406 64.3339V70.456C77.4406 73.9833 80.3336 76.7284 83.8659 76.7284H92.4824V87.0521C92.4824 88.9349 90.9507 90.5168 89.0654 90.5168H30.8936C29.0108 90.5168 27.5518 88.9374 27.5518 87.0521V47.7377C27.5518 45.855 29.0108 44.3884 30.8936 44.3884H89.0654C90.9507 44.3884 92.4824 45.855 92.4824 47.7377Z" fill="white"/>
<path d="M94.3226 73.8529H83.6353C81.9231 73.8529 80.5242 72.454 80.5242 70.7417V64.1634C80.5242 62.4511 81.9231 61.0522 83.6353 61.0522H94.3226C96.0348 61.0522 97.4337 62.4511 97.4337 64.1634V70.7417C97.4337 72.4515 96.0348 73.8529 94.3226 73.8529Z" fill="white"/>
<path d="M85.5831 42.8844H59.1069L77.9268 35.9676C80.4338 35.0576 83.2316 36.3938 84.1441 38.8958L85.5831 42.8844Z" fill="white"/>
<path d="M77.0619 33.7013L49.781 43.634L65.8332 30.5476C68.9619 27.998 73.6048 28.4668 76.1544 31.5955L77.7012 33.4958C77.4856 33.5559 77.2725 33.6261 77.0619 33.7013Z" fill="white"/>
<path d="M87.0045 69.9595C88.3891 69.9595 89.5115 68.8371 89.5115 67.4525C89.5115 66.068 88.3891 64.9456 87.0045 64.9456C85.62 64.9456 84.4976 66.068 84.4976 67.4525C84.4976 68.8371 85.62 69.9595 87.0045 69.9595Z" fill="#32CD32"/>
</svg>
