<svg width="80" height="80" viewBox="0 0 80 80" fill="none" xmlns="http://www.w3.org/2000/svg">
<path d="M40 80.0001C62.0914 80.0001 80 62.1179 80 40.059C80 18.0002 62.0914 0.117981 40 0.117981C17.9086 0.117981 0 18.0002 0 40.059C0 62.1179 17.9086 80.0001 40 80.0001Z" fill="#32CD32"/>
<path opacity="0.13" d="M63.6626 7.64873C6.40653 5.19552 4.5255 57.7806 4.51256 58.1617C1.70151 52.6981 0.116455 46.5045 0.116455 39.941C0.116455 17.8815 18.026 0 40.1165 0C48.9184 0 57.0571 2.8392 63.6626 7.64873Z" fill="black"/>
<path d="M61.898 50.8341L58.3203 45.4819C58.3122 45.4706 58.3041 45.4609 58.2977 45.4496L43.3658 23.1107C42.9582 22.5018 42.3678 22.09 41.7176 21.8962C41.5947 21.8493 41.4653 21.8106 41.3327 21.7847L26.1728 19.6949C24.887 19.4381 23.6367 20.2715 23.3795 21.5554L19.4961 36.3361C19.4331 36.651 19.336 37.0128 19.3942 37.3099C19.4347 37.8041 19.6967 38.245 19.9927 38.6875L38.1383 65.8376C39.0635 67.2217 40.9348 67.5948 42.3209 66.671L56.119 57.4767L56.1206 57.4783L61.2688 54.0464C62.3282 53.339 62.6113 51.9016 61.898 50.8341ZM30.2923 28.114C29.3526 28.7406 28.0813 28.4871 27.4538 27.5487C26.8262 26.6104 27.0801 25.341 28.0199 24.7144C28.9596 24.0878 30.2308 24.3413 30.8584 25.2796C31.486 26.2196 31.232 27.4874 30.2923 28.114Z" fill="white"/>
<path d="M44.0531 58.9795C42.7996 59.8145 41.1045 59.4769 40.2683 58.2253L27.2855 38.8014C26.4493 37.5498 26.7873 35.8573 28.0408 35.0223L36.1634 29.6087C37.4169 28.7738 39.1119 29.1113 39.9481 30.363L52.931 49.7868C53.7672 51.0384 53.4292 52.7294 52.1757 53.566L44.0531 58.9795Z" fill="#32CD32"/>
</svg>
