<svg width="80" height="80" viewBox="0 0 80 80" fill="none" xmlns="http://www.w3.org/2000/svg">
<g clip-path="url(#clip0)">
<path d="M80.0001 40.0662C80.0001 62.1211 62.0987 80 40.0162 80C17.9338 80 0.032407 62.1211 0.0324079 40.0662C0.0324089 18.0114 17.9338 0.132447 40.0162 0.132448C62.0987 0.132449 80.0001 18.0114 80.0001 40.0662Z" fill="#32CD32"/>
<path opacity="0.13" d="M7.65692 63.441C5.20108 6.27967 57.8424 4.40175 58.224 4.38883C52.7545 1.58243 46.5543 2.03495e-06 39.9838 1.74775e-06C17.9007 7.82462e-07 -7.81554e-07 17.8799 -1.74556e-06 39.9338C-2.12967e-06 48.7211 2.84224 56.8464 7.65692 63.441Z" fill="black"/>
<path d="M48.9147 51.6697L48.5283 49.07C46.8356 48.9602 45.4953 48.5662 44.1469 47.9833L44.1001 47.9994L42.5124 50.1131C42.1648 50.583 41.4906 50.6815 41.0201 50.3343L37.3404 47.6119C36.8699 47.2631 36.7697 46.601 37.1189 46.1328L38.6532 43.8447C37.6864 42.6853 37.0429 42.0895 36.3558 39.8499L36.3445 39.8515L33.7787 40.4457C33.1999 40.5313 32.7246 40.168 32.6389 39.5899L31.9777 35.122C31.892 34.5439 32.28 34.2936 32.8588 34.208L35.4634 33.8366C35.5733 32.146 35.9613 30.767 36.545 29.4187L36.5272 29.3509L34.4093 27.7556C33.9388 27.4068 33.8385 26.7302 34.1878 26.2603L36.9136 22.582C37.2612 22.1137 37.9257 22.0104 38.3945 22.3592L40.603 23.9077C41.7639 22.9421 42.6595 22.2494 44.5188 21.6293L44.5172 21.618L44.1033 19.0231C44.0176 18.4451 44.2892 18.0785 44.868 17.9929L49.3868 17.3245C49.9656 17.2389 50.4215 17.4988 50.5072 18.0769L50.8904 20.6766C52.5831 20.7864 53.8717 21.1869 55.2201 21.7714L55.2411 21.7601L56.8158 19.648C57.165 19.1798 57.8311 19.0797 58.3016 19.4284L61.9781 22.1509C62.4486 22.4996 62.5472 23.1617 62.198 23.63L60.641 25.8211C61.6078 26.9805 62.3629 28.2416 62.9174 29.7175L62.9287 29.7159L65.5382 29.3655C66.117 29.2799 66.6731 29.4591 66.7588 30.0372L67.4314 34.5665C67.5171 35.1446 67.0757 35.7307 66.4969 35.8163L63.8503 35.9503C63.7403 37.6409 63.3652 39.0748 62.704 39.9758L62.7121 39.9742L64.8688 41.7892C65.3393 42.1363 65.4589 42.9243 65.1097 43.3926L62.3936 47.1258C62.0444 47.5957 61.388 47.7249 60.9175 47.3761L58.6427 45.8534C57.4819 46.819 56.9015 47.4649 54.6607 48.1593L54.6623 48.1706L55.1958 50.7444C55.2815 51.3225 55.0099 51.9845 54.4311 52.0717L49.9414 52.7354C49.3642 52.8194 49.0004 52.2477 48.9147 51.6697ZM55.2589 31.371C55.2217 31.3128 55.1845 31.2531 55.1441 31.1966C55.0244 31.0206 54.8967 30.851 54.7609 30.6879C54.693 30.6072 54.6235 30.5265 54.5523 30.4489C54.4812 30.3714 54.4085 30.2955 54.3325 30.2213C54.2953 30.1841 54.2565 30.147 54.2193 30.1115C53.9978 29.9016 53.7618 29.7078 53.5144 29.5318C53.267 29.3558 53.0067 29.1959 52.7351 29.0538C52.6268 28.9973 52.5169 28.944 52.4053 28.894C52.0706 28.7422 51.723 28.6178 51.3641 28.5242C50.5266 28.3046 49.6326 28.2465 48.7223 28.3805C46.8097 28.6631 45.2124 29.7401 44.2132 31.2272C44.1259 31.358 44.0419 31.4921 43.9626 31.6293C43.9368 31.6745 43.9109 31.7213 43.885 31.7682C43.8349 31.8602 43.7864 31.9555 43.7411 32.0508C43.6037 32.3366 43.4873 32.6337 43.3919 32.9372C43.3596 33.039 43.3305 33.1407 43.3046 33.2456C43.0896 34.074 43.0346 34.9573 43.1688 35.855C43.3272 36.9224 43.7331 37.8912 44.3216 38.7131C44.383 38.8003 44.4477 38.8843 44.5123 38.9682C44.6109 39.0926 44.7144 39.2137 44.8211 39.3299C44.8923 39.4074 44.965 39.4833 45.041 39.5576C45.0782 39.5948 45.117 39.6319 45.1542 39.6674C45.2302 39.7401 45.3094 39.8111 45.3886 39.8789C45.5082 39.9823 45.6327 40.0808 45.7588 40.1744C45.8429 40.2374 45.9302 40.2972 46.0175 40.3569C46.2358 40.5038 46.4637 40.6379 46.6998 40.7574C46.7936 40.8058 46.8889 40.851 46.986 40.8946C47.083 40.9382 47.18 40.9786 47.2786 41.0173C47.4273 41.0755 47.5777 41.1287 47.7297 41.1756C48.6464 41.4598 49.639 41.5486 50.6511 41.4C51.2138 41.3161 51.7489 41.1643 52.2501 40.9544C52.3503 40.9124 52.449 40.8672 52.546 40.8203C52.6915 40.7509 52.8354 40.675 52.9744 40.5943C53.0666 40.541 53.1587 40.4845 53.2492 40.428C53.3091 40.3892 53.3673 40.3504 53.4271 40.3101C53.5435 40.2293 53.6583 40.1454 53.7698 40.0582C53.8523 39.992 53.9347 39.9242 54.014 39.8547C54.077 39.7998 54.1401 39.7433 54.1999 39.6852C54.2549 39.6335 54.3082 39.5818 54.36 39.5302C54.3971 39.493 54.4343 39.4543 54.4699 39.4171C54.5426 39.3412 54.6138 39.2621 54.6817 39.183C54.7156 39.1426 54.7496 39.1023 54.7835 39.0619C54.8498 38.9812 54.9145 38.8972 54.9775 38.8132C55.0083 38.7712 55.0406 38.7276 55.0697 38.6857C55.191 38.5145 55.3041 38.3353 55.4092 38.1528C55.4351 38.1076 55.461 38.0608 55.4868 38.0139C55.5369 37.9219 55.5854 37.8266 55.6307 37.7314C55.676 37.6361 55.7196 37.5392 55.7617 37.4423C55.7827 37.3939 55.8021 37.3438 55.8215 37.2954C55.8603 37.1969 55.8975 37.0968 55.9314 36.9967C56.2548 36.0407 56.3631 34.9944 56.2047 33.9271C56.0769 33.068 55.7892 32.2736 55.3753 31.5663C55.3381 31.4985 55.2993 31.4355 55.2589 31.371Z" fill="white"/>
<path d="M22.1673 59.874L22.3581 58.3449C21.4188 58.0171 20.722 57.5844 20.0526 57.0434L20.0235 57.045L18.7932 57.9913C18.5232 58.2012 18.1255 58.1527 17.9153 57.8815L16.263 55.7662C16.0528 55.4949 16.0997 55.1058 16.3697 54.8958L17.5968 53.843C17.233 53.0357 16.963 52.5981 16.9258 51.2256L16.9194 51.2256L15.3754 51.1594C15.0342 51.1174 14.8224 50.8364 14.8661 50.4973L15.1943 47.8686C15.2363 47.5279 15.495 47.4471 15.8361 47.4907L17.3672 47.6893C17.6954 46.7512 18.1319 46.0326 18.6735 45.3625L18.6735 45.3221L17.7277 44.0885C17.5176 43.8188 17.5661 43.42 17.8377 43.2085L19.9572 41.5566C20.2272 41.3467 20.6185 41.3919 20.8287 41.6632L21.8343 42.8855C22.6427 42.5222 23.257 42.2703 24.4065 42.2122L24.4065 42.2057L24.5811 40.675C24.6232 40.3343 24.835 40.1696 25.1761 40.2115L27.8357 40.5426C28.1768 40.5845 28.3934 40.8041 28.3498 41.1432L28.1574 42.6724C29.0967 43.0002 29.7628 43.4297 30.4338 43.9706L30.4467 43.9674L31.669 43.0212C31.939 42.8112 32.3318 42.8597 32.5436 43.1293L34.1943 45.2446C34.4045 45.5143 34.3576 45.9051 34.086 46.115L32.8621 47.1096C33.2259 47.917 33.4555 48.747 33.5363 49.669L33.5428 49.669L35.0722 49.8805C35.4134 49.9225 35.6979 50.1114 35.6559 50.4521L35.3228 53.118C35.2808 53.4587 34.938 53.7203 34.5985 53.6783L33.082 53.3393C32.7538 54.2774 32.3173 55.0299 31.7999 55.4352L31.8048 55.4352L32.7376 56.7996C32.9478 57.0693 32.8928 57.5343 32.6212 57.7442L30.5001 59.4284C30.2301 59.6383 29.8372 59.6092 29.627 59.338L28.581 58.1205C27.7726 58.4838 27.3442 58.7583 25.9683 58.7986L25.9683 58.8051L25.8648 60.3439C25.8228 60.6846 25.5641 61.0157 25.2246 60.9737L22.5828 60.6443C22.2401 60.5942 22.1237 60.2131 22.1673 59.874ZM28.9447 49.3961C28.9334 49.3573 28.9205 49.3186 28.9076 49.2798C28.8671 49.162 28.8219 49.0457 28.7718 48.9327C28.7459 48.8762 28.72 48.8196 28.6909 48.7647C28.6634 48.7098 28.6327 48.6549 28.602 48.6016C28.5874 48.5742 28.5713 48.5484 28.5551 48.5209C28.463 48.3675 28.3595 48.2206 28.2479 48.0817C28.1348 47.9428 28.0135 47.812 27.8825 47.6893C27.8308 47.6409 27.7758 47.5924 27.7209 47.5472C27.556 47.4084 27.3781 47.284 27.1906 47.1742C26.7524 46.9191 26.2561 46.7447 25.7193 46.6785C24.5941 46.538 23.5205 46.8965 22.7235 47.5811C22.6524 47.6409 22.5844 47.7039 22.5182 47.7701C22.4955 47.7911 22.4745 47.8137 22.4535 47.8363C22.4098 47.8815 22.3678 47.9267 22.3274 47.9735C22.2045 48.114 22.093 48.2626 21.9911 48.4208C21.9572 48.4725 21.9248 48.5274 21.8925 48.5807C21.6419 49.015 21.4705 49.5059 21.4058 50.0339C21.3282 50.662 21.4042 51.274 21.6079 51.8295C21.629 51.8876 21.6516 51.9457 21.6758 52.0039C21.7114 52.0895 21.7518 52.175 21.7939 52.2574C21.8213 52.3123 21.8521 52.3672 21.8828 52.4205C21.8973 52.4479 21.9135 52.4738 21.9297 52.5012C21.962 52.5545 21.9943 52.6062 22.0299 52.6578C22.0816 52.7353 22.1366 52.8096 22.1932 52.8823C22.232 52.9307 22.2708 52.9792 22.3112 53.026C22.4115 53.1439 22.5198 53.2537 22.6346 53.3586C22.6798 53.4006 22.7267 53.441 22.7752 53.4813C22.8237 53.5217 22.8722 53.5589 22.9207 53.5976C22.9951 53.6541 23.0727 53.7074 23.1503 53.7575C23.624 54.0627 24.1705 54.2677 24.7654 54.342C25.0969 54.384 25.4235 54.3808 25.7387 54.3404C25.8018 54.3323 25.8648 54.3226 25.9279 54.3113C26.0217 54.2952 26.1138 54.2742 26.206 54.2516C26.2674 54.2354 26.3272 54.2193 26.387 54.1999C26.4275 54.187 26.4663 54.1741 26.5051 54.1612C26.5843 54.1337 26.6619 54.1046 26.7379 54.0723C26.7945 54.0481 26.8527 54.0223 26.9076 53.9964C26.9529 53.9755 26.9966 53.9528 27.0402 53.9302C27.079 53.9092 27.1178 53.8899 27.155 53.8673C27.1825 53.8511 27.2084 53.8366 27.2358 53.8204C27.2892 53.7881 27.3409 53.7559 27.3927 53.7203C27.4185 53.7026 27.4444 53.6864 27.4686 53.667C27.5188 53.6315 27.5689 53.5944 27.6174 53.5572C27.6416 53.5379 27.6659 53.5185 27.6901 53.4991C27.7855 53.4216 27.8777 53.3376 27.9666 53.2504C27.9892 53.2295 28.0103 53.2068 28.0313 53.1842C28.0749 53.139 28.117 53.0938 28.1574 53.047C28.1978 53.0002 28.2382 52.9533 28.277 52.9033C28.2964 52.8791 28.3158 52.8548 28.3336 52.829C28.3708 52.7789 28.408 52.7289 28.4419 52.6772C28.775 52.188 29.0013 51.6131 29.0789 50.985C29.142 50.4796 29.1032 49.9855 28.9803 49.5204C28.9706 49.4801 28.9577 49.4381 28.9447 49.3961Z" fill="white"/>
</g>
<defs>
<clipPath id="clip0">
<rect width="80" height="80" fill="white" transform="matrix(-4.37114e-08 1 1 4.37114e-08 0 0)"/>
</clipPath>
</defs>
</svg>
