<svg width="29" height="29" viewBox="0 0 29 29" fill="none" xmlns="http://www.w3.org/2000/svg">
<path d="M14.5 29C22.5081 29 29 22.5081 29 14.5C29 6.49187 22.5081 0 14.5 0C6.49187 0 0 6.49187 0 14.5C0 22.5081 6.49187 29 14.5 29Z" fill="#FF8C00"/>
<path opacity="0.13" d="M23.0777 2.77676C2.32239 1.88616 1.64051 20.9764 1.63582 21.1147C0.616819 19.1313 0.0422363 16.8828 0.0422363 14.5C0.0422363 6.49161 6.53443 0 14.5422 0C17.7329 0 20.6832 1.03073 23.0777 2.77676Z" fill="black"/>
<path d="M22.1173 10.8649L20.4434 9.14231C20.2833 8.97755 20.0201 8.97404 19.8553 9.1341L13.1761 15.6245L9.72978 12.2069C9.5703 12.0416 9.30705 12.0375 9.14229 12.197L7.41444 13.8656C7.2491 14.0251 7.245 14.2883 7.40448 14.4537L12.8542 19.8571C13.0137 20.0219 13.2769 20.0266 13.4423 19.8671L14.6829 18.6687C14.6853 18.6669 14.687 18.6657 14.6894 18.664L14.8752 18.4834L15.1701 18.1984C15.1731 18.1955 15.1754 18.192 15.1783 18.1885L22.1097 11.4524C22.2733 11.2929 22.2774 11.0296 22.1173 10.8649Z" fill="white"/>
</svg>
