<svg width="29" height="29" viewBox="0 0 29 29" fill="none" xmlns="http://www.w3.org/2000/svg">
<path d="M14.5 29C22.5081 29 29 22.5177 29 14.5214C29 6.52503 22.5081 0.0427246 14.5 0.0427246C6.49187 0.0427246 0 6.52503 0 14.5214C0 22.5177 6.49187 29 14.5 29Z" fill="#32CD32"/>
<path opacity="0.13" d="M23.0777 2.77267C2.32239 1.88338 1.64051 20.9455 1.63582 21.0836C0.616819 19.1031 0.0422363 16.8579 0.0422363 14.4786C0.0422363 6.48204 6.53443 0 14.5422 0C17.7329 0 20.6832 1.02921 23.0777 2.77267Z" fill="black"/>
<path d="M22.438 18.4274L21.1411 16.4872C21.1382 16.4831 21.1352 16.4796 21.1329 16.4755L15.7201 8.37762C15.5723 8.15691 15.3583 8.00762 15.1226 7.93736C15.0781 7.92039 15.0312 7.90634 14.9831 7.89697L9.48764 7.1394C9.02152 7.04632 8.5683 7.34841 8.47508 7.81384L7.06735 13.1718C7.04449 13.286 7.00931 13.4171 7.03042 13.5248C7.04507 13.704 7.14006 13.8638 7.24735 14.0242L13.8251 23.8661C14.1605 24.3679 14.8389 24.5031 15.3413 24.1682L20.3431 20.8353L20.3437 20.8359L22.2099 19.5918C22.594 19.3354 22.6966 18.8143 22.438 18.4274ZM10.981 10.1913C10.6403 10.4185 10.1795 10.3266 9.95199 9.98642C9.7245 9.64628 9.81656 9.18612 10.1572 8.95897C10.4978 8.73181 10.9587 8.82373 11.1862 9.16387C11.4137 9.5046 11.3216 9.96417 10.981 10.1913Z" fill="white"/>
<path d="M15.9693 21.3799C15.5149 21.6826 14.9004 21.5603 14.5973 21.1065L9.89101 14.0654C9.58789 13.6117 9.71043 12.9981 10.1648 12.6955L13.1093 10.733C13.5636 10.4304 14.1781 10.5527 14.4812 11.0065L19.1875 18.0476C19.4906 18.5013 19.3681 19.1143 18.9137 19.4175L15.9693 21.3799Z" fill="#32CD32"/>
</svg>
