<svg width="124" height="124" viewBox="0 0 124 124" fill="none" xmlns="http://www.w3.org/2000/svg">
<path d="M62 124C96.2416 124 124 96.2416 124 62C124 27.7583 96.2416 0 62 0C27.7583 0 0 27.7583 0 62C0 96.2416 27.7583 124 62 124Z" fill="#32CD32"/>
<path d="M92.0737 43.4059C92.0461 42.6588 91.7553 42.4307 91.1386 42.2903C80.9127 39.9663 71.6243 35.4387 63.0705 29.2214C62.7722 29.0058 62.534 28.9156 62.2984 28.9256V28.8955C62.0627 28.9055 61.8271 29.0334 61.5387 29.2214C58.5504 31.1618 55.5972 33.1849 52.4986 34.9122C46.2688 38.3869 39.7231 41.0493 32.7737 42.5435C32.2798 42.6488 31.9314 42.7892 31.9113 43.4911C31.7584 49.1995 32.0868 54.8302 33.2601 60.4182C33.779 62.8951 34.4383 65.3394 35.218 67.6082H35.2606L35.218 67.6709C37.8729 75.6481 41.9969 82.8456 47.4145 89.3562C51.6086 94.3952 56.3468 98.7749 61.8296 102.445V102.415C70.975 96.3005 78.2578 88.371 83.7531 78.6991C85.7812 75.1291 87.4132 71.5392 88.6893 67.6734H88.7093C91.3066 59.9645 92.3796 51.8594 92.0737 43.4059Z" fill="white"/>
</svg>
