<svg width="80" height="80" viewBox="0 0 80 80" fill="none" xmlns="http://www.w3.org/2000/svg">
<path d="M40 79.9999C62.0914 79.9999 80 62.1178 80 40.059C80 18.0002 62.0914 0.117981 40 0.117981C17.9086 0.117981 0 18.0002 0 40.059C0 62.1178 17.9086 79.9999 40 79.9999Z" fill="#32CD32"/>
<path opacity="0.13" d="M63.5462 7.64872C6.29008 5.19551 4.40904 57.7805 4.3961 58.1616C1.58506 52.698 0 46.5044 0 39.941C0 17.8815 17.9095 0 40 0C48.8019 0 56.9407 2.8392 63.5462 7.64872Z" fill="black"/>
<path d="M54.3787 61.5969H24.5878C21.2963 61.5969 18.605 58.9079 18.605 55.6229V25.8743C18.605 22.5878 21.298 19.9004 24.5878 19.9004H54.3787C57.6701 19.9004 60.3615 22.5894 60.3615 25.8743V55.6213C60.3631 58.9079 57.6701 61.5969 54.3787 61.5969Z" fill="white"/>
<path d="M39.5358 56.1237C48.0495 56.1237 54.9512 49.2322 54.9512 40.731C54.9512 32.2298 48.0495 25.3383 39.5358 25.3383C31.022 25.3383 24.1203 32.2298 24.1203 40.731C24.1203 49.2322 31.022 56.1237 39.5358 56.1237Z" fill="#32CD32"/>
<path d="M39.5738 40.7464L38.8595 41.1582L44.9879 51.7568L45.7022 51.345L39.5738 40.7464Z" fill="white"/>
<path d="M40.7291 41.9231C41.3885 41.2646 41.3885 40.1971 40.7291 39.5386C40.0696 38.8802 39.0005 38.8802 38.3411 39.5386C37.6817 40.1971 37.6817 41.2646 38.3411 41.9231C39.0005 42.5815 40.0696 42.5815 40.7291 41.9231Z" fill="white"/>
<path d="M39.2705 39.442L39.2689 39.4403C39.2689 39.4387 39.2673 39.4371 39.2641 39.4355L33.1487 33.1127C32.9788 32.9044 32.7184 32.7703 32.4289 32.7703C31.9146 32.7703 31.4989 33.1854 31.4989 33.699C31.4989 33.9687 31.6154 34.2125 31.7997 34.3821L37.9394 40.7291C37.954 40.7437 37.9701 40.7566 37.9879 40.7663C38.1529 40.9181 38.3729 41.0118 38.6155 41.0118C39.125 41.0118 39.539 40.5983 39.539 40.0896C39.5358 39.836 39.4355 39.6083 39.2705 39.442Z" fill="white"/>
<path d="M49.3195 38.3791H49.3179C49.3163 38.3791 49.313 38.3791 49.3114 38.3808L40.5775 39.4871C40.309 39.4984 40.0453 39.6259 39.8723 39.8585C39.565 40.2687 39.6491 40.8501 40.0599 41.157C40.2766 41.3185 40.5403 41.3718 40.7877 41.3266L49.5524 40.217C49.5734 40.2138 49.5929 40.209 49.6123 40.2009C49.8338 40.1605 50.0393 40.0394 50.1848 39.8472C50.4905 39.4386 50.4064 38.862 49.9988 38.5568C49.795 38.405 49.5508 38.3485 49.3195 38.3791Z" fill="white"/>
<path d="M39.5359 41.7946C40.1246 41.7946 40.6018 41.3181 40.6018 40.7303C40.6018 40.1425 40.1246 39.666 39.5359 39.666C38.9472 39.666 38.47 40.1425 38.47 40.7303C38.47 41.3181 38.9472 41.7946 39.5359 41.7946Z" fill="#32CD32"/>
</svg>
