<svg width="124" height="124" viewBox="0 0 124 124" fill="none" xmlns="http://www.w3.org/2000/svg">
<path d="M62 124C96.2416 124 124 96.2416 124 62C124 27.7583 96.2416 0 62 0C27.7583 0 0 27.7583 0 62C0 96.2416 27.7583 124 62 124Z" fill="#32CD32"/>
<path d="M62.2156 99.5544C82.7514 99.5544 99.399 82.9068 99.399 62.3709C99.399 41.8351 82.7514 25.1875 62.2156 25.1875C41.6797 25.1875 25.0321 41.8351 25.0321 62.3709C25.0321 82.9068 41.6797 99.5544 62.2156 99.5544Z" fill="white"/>
<path d="M62.2156 91.8507C78.4967 91.8507 91.6951 78.6522 91.6951 62.3711C91.6951 46.09 78.4967 32.8916 62.2156 32.8916C45.9345 32.8916 32.7361 46.09 32.7361 62.3711C32.7361 78.6522 45.9345 91.8507 62.2156 91.8507Z" fill="#32CD32"/>
<path d="M65.447 62.371L81.4616 46.8428L62.8749 59.3601L65.447 62.371Z" fill="white"/>
<path d="M58.7936 63.0253L48.881 54.7021L61.0172 59.6559L58.7936 63.0253Z" fill="white"/>
<path d="M63.6685 64.1887L63.2969 64.5686L77.8785 78.83L78.2501 78.4501L63.6685 64.1887Z" fill="white"/>
<path d="M63.0305 32.8916H61.8322V35.9075H63.0305V32.8916Z" fill="white"/>
<path d="M76.8975 36.7682L76.4266 36.4958L75.3936 38.2818L75.8645 38.5542L76.8975 36.7682Z" fill="white"/>
<path d="M87.7369 47.5671L87.4657 47.0955L85.6771 48.124L85.9483 48.5956L87.7369 47.5671Z" fill="white"/>
<path d="M87.7515 77.102L88.0251 76.6318L86.2419 75.594L85.9682 76.0642L87.7515 77.102Z" fill="white"/>
<path d="M76.9435 87.9148L77.4158 87.6448L76.3918 85.8535L75.9195 86.1235L76.9435 87.9148Z" fill="white"/>
<path d="M47.4072 87.8926L47.8767 88.1675L48.9191 86.3869L48.4496 86.1121L47.4072 87.8926Z" fill="white"/>
<path d="M36.6282 77.0387L36.897 77.5117L38.691 76.4925L38.4222 76.0195L36.6282 77.0387Z" fill="white"/>
<path d="M36.7416 47.4961L36.4656 47.9648L38.2435 49.0117L38.5195 48.543L36.7416 47.4961Z" fill="white"/>
<path d="M47.6211 36.7556L47.1475 37.0232L48.1622 38.8197L48.6358 38.5521L47.6211 36.7556Z" fill="white"/>
<path d="M63.0305 88.832H61.8322V91.8479H63.0305V88.832Z" fill="white"/>
<path d="M91.6952 62.9691V61.7708H88.6793V62.9691H91.6952Z" fill="white"/>
<path d="M35.7531 62.9706V61.7722H32.7372V62.9706H35.7531Z" fill="white"/>
<path d="M65.5193 63.1563C65.9501 61.3318 64.8203 59.5036 62.9959 59.0728C61.1714 58.642 59.3432 59.7717 58.9124 61.5962C58.4816 63.4206 59.6113 65.2489 61.4358 65.6797C63.2602 66.1105 65.0885 64.9807 65.5193 63.1563Z" fill="white"/>
<path d="M62.2155 64.6549C63.4768 64.6549 64.4994 63.6324 64.4994 62.371C64.4994 61.1097 63.4768 60.0872 62.2155 60.0872C60.9542 60.0872 59.9316 61.1097 59.9316 62.371C59.9316 63.6324 60.9542 64.6549 62.2155 64.6549Z" fill="white"/>
</svg>
